<?xml version="1.0" encoding="iso-8859-1"?>
<!-- Generator: Adobe Illustrator 19.0.0, SVG Export Plug-In . SVG Version: 6.00 Build 0)  -->
<svg version="1.1" id="Capa_1" xmlns="http://www.w3.org/2000/svg" xmlns:xlink="http://www.w3.org/1999/xlink" x="0px" y="0px"
	 viewBox="0 0 512 512" style="enable-background:new 0 0 512 512;" xml:space="preserve">
<g transform="matrix(1.25 0 0 -1.25 0 45)">
	<g>
		<g>
			<path style="fill:#006847;" d="M45.511-20.889C20.378-20.889,0-41.266,0-66.4v-204.8c0-25.134,20.378-45.511,45.511-45.511
				h79.644v295.822H45.511z"/>
			<path style="fill:#CE1126;" d="M364.089-20.889h-79.644v-295.822h79.644c25.134,0,45.511,20.378,45.511,45.511v204.8
				C409.6-41.266,389.222-20.889,364.089-20.889"/>
			<path style="fill:#EEEEEE;" d="M125.156-316.711h159.289v295.822H125.156V-316.711z"/>
			<path style="fill:#A6D388;" d="M261.689-168.8c0-31.425-25.463-56.889-56.889-56.889c-31.414,0-56.889,25.463-56.889,56.889
				h-11.378c0-37.706,30.561-68.267,68.267-68.267s68.267,30.561,68.267,68.267H261.689z"/>
			<g>
				<path style="fill:#5C913B;" d="M154.089-194.616c-1.047,2.048-3.163,3.186-5.325,3.083c-0.785-0.011-1.582-0.228-2.332-0.592
					c-2.799-1.422-3.914-4.858-2.492-7.657c1.035-2.014,2.162-3.982,3.368-5.871c0,0,0.011,0,0.011-0.011
					c0.011-0.023,0.023-0.046,0.046-0.068l0,0c0.034-0.046,0.057-0.08,0.091-0.125c0-0.011,0-0.011,0-0.011
					c0.023-0.023,0.034-0.046,0.046-0.068c0-0.011,0-0.011,0.011-0.023c0.011-0.023,0.023-0.046,0.046-0.057c0-0.011,0,0,0-0.011
					c0.011-0.011,0.034-0.034,0.046-0.057v-0.023c0.011-0.023,0.034-0.046,0.046-0.057c0-0.011,0-0.023,0-0.023
					c0.023-0.011,0.034-0.034,0.046-0.046c0-0.011,0-0.011,0.011-0.023c0.011-0.011,0.023-0.023,0.034-0.046
					c0-0.011,0.011-0.023,0.023-0.034c0.011-0.011,0.023-0.023,0.023-0.034c0.011-0.011,0.011-0.023,0.023-0.034
					c0.011-0.023,0.023-0.034,0.034-0.057c0,0,0.011,0,0.011-0.011c0.011-0.011,0.023-0.023,0.034-0.034
					c0-0.023,0.011-0.046,0.034-0.068c0-0.011,0-0.011,0-0.023c0.011-0.023,0.023-0.046,0.046-0.057
					c0-0.011,0.011-0.011,0.011-0.011c0.023-0.034,0.046-0.08,0.08-0.114c0-0.011,0.011-0.011,0.011-0.011
					c0.011-0.034,0.034-0.057,0.057-0.08v-0.011c0.58-0.876,1.195-1.718,1.832-2.583c1.161-1.559,2.981-2.344,4.79-2.276
					c1.092,0.046,2.196,0.41,3.14,1.126c2.526,1.866,3.061,5.427,1.172,7.953C157.184-200.123,155.523-197.415,154.089-194.616"/>
				<path style="fill:#5C913B;" d="M148.48-176.605c-0.239,1.775-0.41,3.584-0.478,5.427c-0.068,1.365-0.068,2.708-0.034,4.05
					c0.091,3.129-2.378,5.757-5.518,5.848c-0.137,0-0.273,0-0.41-0.011c-2.958-0.125-5.359-2.514-5.439-5.53
					c-0.034-1.172-0.034-2.355-0.011-3.538c0-0.057,0.011-0.102,0-0.148l0.011-0.011c0-0.023,0-0.046-0.011-0.068l0.011-0.011
					c0-0.046,0-0.091,0-0.137v-0.011v-0.068c0-0.034,0-0.057,0-0.08v-0.011c0-0.023,0-0.034,0.011-0.057
					c-0.011-0.011-0.011-0.011-0.011-0.023c0-0.023,0.011-0.046,0-0.068c0-0.023,0.011-0.046,0.011-0.068
					c0-0.011-0.011-0.011-0.011-0.023c0-0.011,0.011-0.034,0.011-0.046v-0.011c0-0.023,0.011-0.046,0.011-0.068v-0.011
					c-0.011-0.023,0-0.046,0-0.057v-0.023c0-0.023,0-0.046,0-0.057v-0.011c0-0.023,0-0.046,0-0.08v-0.011c0-0.023,0-0.034,0-0.057
					v-0.023v-0.068c0,0,0.011-0.023,0.011-0.046v-0.011c0-0.011,0.011-0.034,0.011-0.034c-0.011-0.011-0.011-0.023-0.011-0.023
					v-0.034c0.011-0.011,0.011-0.011,0.011-0.023v-0.034c0-0.011,0-0.011,0-0.023c0,0,0-0.023,0-0.034v-0.023
					c0-0.011,0-0.023,0-0.034v-0.023v-0.034v-0.011v-0.034c0-0.011,0-0.023,0-0.023v-0.023v-0.023c0-0.011,0.011-0.023,0.011-0.034
					v-0.023c0-0.011-0.011-0.023,0-0.046v-0.011c0-0.011,0-0.023,0-0.046c0.011-0.08,0.011-0.159,0.011-0.228
					c0-0.034,0-0.057,0.011-0.091v-0.011c0-0.011,0-0.034,0-0.046v-0.011v-0.046l0.011-0.011c0.102-1.82,0.284-3.641,0.523-5.427
					c0.41-2.924,2.97-5.006,5.86-4.881c0.182,0.011,0.364,0.023,0.546,0.046C146.739-182.601,148.912-179.723,148.48-176.605"/>
				<path style="fill:#5C913B;" d="M208.668-225.575c-0.023-0.011-0.046-0.011-0.068-0.011l-1.411-0.091
					c-2.697-0.102-5.427-0.034-8.078,0.239c-0.273,0.034-0.546,0.034-0.819,0.023c-2.776-0.114-5.12-2.276-5.416-5.12
					c-0.307-3.129,1.968-5.905,5.086-6.224c0.478-0.046,0.944-0.08,1.422-0.125l0,0c0.023-0.011,0.034-0.011,0.046-0.011
					c0,0,0.011,0,0.023,0.011c0.011,0,0.023,0,0.034-0.011h0.023c0.023,0,0.046,0,0.068-0.011h0.034h0.034
					c0.011,0,0.023,0,0.034-0.011h0.023c0.023,0.011,0.046,0.011,0.068,0.011c0.011-0.011,0.011-0.011,0.023-0.011h0.046h0.023
					c0.023-0.011,0.046-0.011,0.068-0.011l0,0c0.023,0,0.046-0.011,0.057-0.011h0.023c0.023,0.011,0.046,0.011,0.068,0h0.068l0,0
					c0.023,0,0.046-0.011,0.068-0.011l0,0c0.057-0.011,0.102,0,0.159,0c1.718-0.114,3.459-0.171,5.222-0.137
					c0.08,0,0.148-0.011,0.228,0h0.011h0.137h0.011h0.068c0.034,0,0.057,0.011,0.08,0.011c0.023-0.011,0.046-0.011,0.068-0.011
					h0.011h0.148h0.011c0.011,0.011,0.034,0.011,0.057,0.011h0.011h0.08l0,0c0.023,0.011,0.034,0.011,0.057,0h0.023h0.068l0,0
					c0.023,0.011,0.046,0.011,0.068,0.011h0.023c0.011,0,0.034-0.011,0.057-0.011c0,0,0,0.011,0.011,0.011
					c0.023,0,0.046,0,0.068-0.011h0.011c0.023,0,0.034,0,0.057,0.011h0.023h0.057h0.011c0.023,0,0.046,0,0.068,0.011h0.011h0.057
					l0.023-0.011c0.023,0,0.046,0.011,0.068,0.011h0.011h0.057h0.023c0.011,0,0.034,0.011,0.057,0.011h0.011h0.068h0.011h0.057
					h0.011h0.068c0.023,0,0.046,0.011,0.068,0.011l0,0h0.046h0.011c0.011,0,0.034,0,0.046,0.011h0.011
					c0.011,0,0.034-0.011,0.046-0.011h0.011h0.046l0,0c0.023,0,0.034,0.011,0.057,0.011l0,0h0.057
					c0.478,0.011,0.967,0.057,1.445,0.08c3.061,0.25,5.359,2.901,5.154,5.985C214.437-227.862,211.775-225.45,208.668-225.575"/>
				<path style="fill:#5C913B;" d="M180.918-220.444c-2.856,1.32-5.632,2.901-8.238,4.676c-1.047,0.74-2.264,1.035-3.447,0.99
					c-1.729-0.068-3.413-0.91-4.46-2.469c-1.775-2.571-1.115-6.133,1.468-7.896c0.011-0.011,0.011-0.011,0.011-0.011
					c0.023,0,0.046-0.023,0.068-0.034c0.023-0.023,0.046-0.046,0.068-0.068h0.011c0.023-0.011,0.046-0.023,0.068-0.046l0,0
					c0.023-0.023,0.046-0.034,0.068-0.057h0.011c3.026-2.048,6.235-3.857,9.58-5.404c0.842-0.398,1.741-0.558,2.628-0.523
					c2.059,0.091,3.994,1.286,4.927,3.288C185.003-225.154,183.762-221.764,180.918-220.444"/>
				<path style="fill:#5C913B;" d="M238.148-215.915c-0.967-0.046-1.946-0.341-2.822-0.91c-2.651-1.684-5.473-3.174-8.351-4.403
					c-2.901-1.206-4.267-4.54-3.038-7.452c0.956-2.241,3.174-3.561,5.461-3.47c0.671,0.023,1.331,0.182,1.968,0.432
					c0.523,0.239,1.013,0.444,1.525,0.683h0.023c0.023,0.011,0.046,0.023,0.068,0.046c0,0,0.023,0,0.023,0.011
					c0.023,0,0.023,0.011,0.046,0.023c0.023-0.011,0.023-0.011,0.046,0c0.023,0,0.023,0.023,0.046,0.023
					c0,0.011,0.023,0.011,0.023,0.023c0.011,0,0.034,0.011,0.057,0.011c0.011,0.011,0.023,0.011,0.023,0.011
					c0.011,0.023,0.023,0.023,0.034,0.023c0.023,0.023,0.034,0.023,0.057,0.023c0.011,0,0.023,0.011,0.034,0.011
					c0.011,0.011,0.034,0.023,0.057,0.023c0.011,0.011,0.011,0.011,0.023,0.011c0.023,0.011,0.034,0.023,0.057,0.023l0.023,0.011
					c0.034,0.023,0.034,0.034,0.057,0.034c0,0.011,0.023,0.011,0.023,0.011c0.023,0.011,0.046,0.023,0.057,0.034h0.023
					c0.023,0.023,0.046,0.023,0.068,0.034c0.023,0.011,0.046,0.023,0.068,0.034l0.023,0.011c0.023,0.011,0.034,0.023,0.057,0.034
					c0.011,0,0.011,0,0.023,0.011c0.023,0,0.046,0.011,0.068,0.034c0.011,0,0.011,0,0.011,0.011c0.023,0.011,0.057,0,0.08,0.011
					c0.023,0.011,0.034,0.034,0.068,0.046c0,0,0,0.011,0.023,0.011c0,0.011,0.023,0.023,0.046,0.034h0.023
					c0.023,0.011,0.046,0.034,0.068,0.034c0.046,0.011,0.068,0.011,0.091,0.023c0.023,0.023,0.046,0.034,0.068,0.046h0.011
					c0.023,0.011,0.057,0.023,0.08,0.046c0,0,0,0.011,0.011,0.011c0.034,0.023,0.091,0.046,0.148,0.068
					c0.023,0.011,0.046,0.023,0.08,0.034c0.046,0.034,0.114,0.057,0.159,0.091c0.023,0.011,0.068,0.023,0.091,0.034
					c0.023,0.011,0.034,0.023,0.057,0.034h0.011c0.046,0.034,0.102,0.057,0.159,0.08v0.011c0.034,0.011,0.057,0.011,0.068,0.023
					h0.011c0.091,0.046,0.159,0.08,0.239,0.137c0.023,0.011,0.046,0.023,0.08,0.023c0.057,0.034,0.102,0.057,0.159,0.091
					c0.034,0.023,0.057,0.034,0.08,0.046h0.011c0.011,0.011,0.034,0.023,0.08,0.023c0.011,0.034,0.034,0.046,0.057,0.057
					c0.023,0.011,0.068,0.023,0.091,0.034c0.023,0.023,0.046,0.023,0.068,0.046l0,0c0.057,0.023,0.114,0.046,0.159,0.068h0.011
					c0.023,0.011,0.057,0.034,0.08,0.046c0,0.011,0,0.011,0.011,0.011c0.011,0.011,0.023,0.023,0.046,0.034h0.011
					c0.034,0.011,0.057,0.034,0.08,0.046c0.023,0.011,0.046,0.023,0.068,0.034h0.023c0.023,0.023,0.046,0.034,0.068,0.046v0.011
					c0.034,0.011,0.057,0.023,0.08,0.034l0.011,0.011c0.023,0.011,0.046,0.023,0.068,0.034v0.011c0.023,0,0.034,0.011,0.057,0.023
					l0.023,0.011c0.023,0.011,0.023,0.023,0.046,0.023s0.034,0.023,0.034,0.023c0.023,0,0.034,0,0.057,0.023
					c0.011,0.011,0.011,0.011,0.023,0.011c0.011,0.011,0.034,0.023,0.057,0.034c0.011,0,0.011,0,0.023,0.011
					c0.023,0,0.046,0.023,0.068,0.023c-0.011,0.011,0,0.011,0.011,0.011c0.011,0.011,0.034,0.023,0.068,0.034
					c0,0,0,0.011,0.023,0.011c0,0,0.011,0.023,0.034,0.034c0,0.011,0.023,0.011,0.023,0.011c0.023,0.011,0.046,0.023,0.068,0.034
					c0,0,0,0.011,0.023,0.011c0,0.023,0.023,0.023,0.046,0.034c0.011,0,0.023,0,0.034,0.011c0.011,0,0.023,0.011,0.046,0.023
					c0.011,0,0.023,0.011,0.034,0.023c0.011,0.011,0.023,0.023,0.046,0.023c0.011,0.011,0.023,0.011,0.034,0.023
					c0.011,0.011,0.034,0.011,0.034,0.023c0.011,0.011,0.023,0.023,0.034,0.034c0.011,0,0.034,0,0.046,0
					c0,0,0.023,0.023,0.046,0.023c0,0,0.023,0,0.023,0.011c0.023,0.011,0.023,0.023,0.046,0.023c0,0.011,0.023,0.023,0.046,0.034
					l0.023,0.011c0.023,0.011,0.023,0.011,0.046,0.023c0.011,0.023,0.034,0.023,0.046,0.034c0.011,0.011,0.023,0.011,0.034,0.023
					c0.023-0.011,0.034,0,0.057,0.011c0.011,0,0.023,0.023,0.023,0.023c0.023,0.011,0.023,0.011,0.046,0.023
					c0,0.011,0.023,0.011,0.023,0.023c0.011,0.011,0.023,0.011,0.034,0.023c0.011,0,0.023,0.023,0.046,0.023
					c0.023,0.011,0.023,0.023,0.046,0.034c0.023,0,0.023,0.011,0.023,0.011c0.023,0.011,0.068,0.011,0.091,0.034
					c-0.023,0.011-0.023,0.011,0,0.011c0,0.011,0.023,0.011,0.046,0.023c0.034,0.023,0.057,0.034,0.08,0.046
					c0.011,0,0.011,0,0.023,0.023c0.023,0,0.046,0.023,0.08,0.023v0.011c0.034,0.034,0.068,0.046,0.125,0.068
					c0.023,0.011,0.068,0.046,0.091,0.057c0.068,0.046,0.137,0.091,0.228,0.125h0.011c0.717,0.432,1.456,0.876,2.15,1.331
					c2.64,1.718,3.425,5.2,1.729,7.851C242.051-216.78,240.105-215.836,238.148-215.915"/>
				<path style="fill:#5C913B;" d="M267.401-163.373c-0.091-0.011-0.182,0-0.262-0.011c-3.026-0.125-5.439-2.617-5.45-5.666
					c0-3.152-0.284-6.337-0.819-9.432c-0.535-3.095,1.559-6.042,4.642-6.565c0.41-0.068,0.808-0.102,1.195-0.091
					c2.628,0.114,4.915,2.037,5.382,4.745v0.057l0.011,0.023c0,0,0.011,0.011,0.011,0.023c0,0.011,0,0.011-0.011,0.023
					c0,0.023,0,0.023,0.011,0.023v0.011c0,0.011,0,0.023,0.011,0.023v0.034c0,0.011,0,0.011,0.011,0.023v0.046v0.011v0.034v0.011
					c0.023,0.011,0.023,0.034,0.023,0.046v0.011v0.057c0.239,1.468,0.444,2.947,0.592,4.437c0,0-0.011,0-0.011,0.011
					c0.011,0.011,0.011,0.034,0.011,0.034v0.011c0,0.011,0,0.034,0.011,0.046v0.057v0.046v0.023c0,0.011,0.011,0.023,0.023,0.034
					v0.011c0,0-0.011,0.023-0.011,0.034v0.023c0.011,0.011,0.011,0.023,0.011,0.034v0.046c0,0,0,0.011,0.023,0.011
					c0,0.011-0.023,0.023-0.023,0.034v0.011v0.023c0.023,0.011,0.023,0.023,0.023,0.034v0.023v0.023v0.034
					c0,0.046,0.011,0.091,0,0.125v0.011c0,0.011,0.023,0.023,0.023,0.034v0.011c0.137,1.855,0.228,3.732,0.239,5.632
					C273.067-165.944,270.541-163.384,267.401-163.373"/>
				<path style="fill:#5C913B;" d="M262.372-194.047c-0.956,0.523-1.991,0.74-2.992,0.705c-1.923-0.08-3.743-1.138-4.745-2.935
					c-1.513-2.753-3.288-5.416-5.268-7.885c-1.946-2.458-1.525-6.042,0.922-7.987c1.126-0.899,2.458-1.286,3.789-1.229
					c1.582,0.068,3.14,0.796,4.21,2.139c1.32,1.673,2.571,3.402,3.755,5.177c0.023,0.08,0.08,0.159,0.114,0.228l0.011,0.011
					c0.011,0.023,0.034,0.046,0.046,0.068v0.011c0.023,0.023,0.023,0.046,0.046,0.08c0.023,0.011,0.046,0.034,0.046,0.057
					l0.011-0.011c0.011,0.023,0.023,0.046,0.046,0.068v0.011c0.023,0.023,0.034,0.057,0.034,0.08c0.023,0,0.023,0.011,0.023,0.011
					c0.023,0.023,0.023,0.046,0.046,0.068v0.011c0.023,0.011,0.023,0.034,0.034,0.057c0.011,0,0.011,0,0.011,0.011
					c0.011,0.023,0.034,0.046,0.046,0.068c0,0.011,0.011,0.011,0.011,0.023c0.011,0.023,0.023,0.023,0.023,0.046
					c0.011,0.011,0.011,0.011,0.023,0.023c0,0.011,0.023,0.034,0.023,0.057h0.023c0,0.023,0.023,0.034,0.023,0.068
					c0,0,0.011,0.011,0.011,0.023c0.023,0.011,0.034,0.034,0.046,0.046c0,0.011,0.011,0.023,0.011,0.023
					c0.011,0.023,0.011,0.046,0.034,0.057c0,0.011,0.011,0.023,0.011,0.034c0.023,0.011,0.023,0.023,0.046,0.034
					c0,0.011,0,0.023,0.023,0.034v0.046c0.023,0.011,0.023,0.011,0.034,0.011c0.011,0.023,0.023,0.034,0.034,0.057
					c0,0.011,0.011,0.011,0.011,0.023c0,0.023,0.023,0.034,0.034,0.068c0,0.011,0.011,0.011,0.023,0.023
					c0,0.011,0.023,0.023,0.023,0.046c0,0.011,0.023,0.023,0.023,0.034s0,0.023,0.023,0.034c0,0.011,0,0.023,0.011,0.034
					c0.023,0.011,0.023,0.034,0.034,0.057c0,0.011,0.011,0.023,0.011,0.034c0,0.011,0.011,0.023,0.023,0.034
					c0,0.011,0.011,0.023,0.023,0.023c0.023,0.011,0.023,0.023,0.023,0.034c0.023,0.011,0.023,0.023,0.023,0.046
					c0,0.011,0.023,0.023,0.023,0.034s0.023,0.034,0.034,0.046c0.011,0.011,0.023,0.034,0.034,0.046c-0.011,0.011,0,0.023,0,0.034
					c0.011,0.011,0.023,0.023,0.023,0.034c0.011,0.011,0.023,0.034,0.034,0.046s0.011,0.023,0.034,0.034v0.034
					c0.023,0.023,0.023,0.034,0.046,0.057v0.034c0.023,0,0.034,0.011,0.034,0.034c0.011,0.011,0.011,0.023,0.023,0.023
					c0.011,0.011,0.011,0.023,0.023,0.034c0.011,0.011,0.023,0.023,0.034,0.057c0,0.011,0.023,0.023,0.023,0.034v0.023
					c0.011,0.023,0.011,0.034,0.034,0.057c0,0.011,0,0.023,0.023,0.034c0,0.011,0.011,0.023,0.011,0.034
					c0.011,0.023,0.023,0.023,0.034,0.046c0,0.011,0.011,0.034,0.023,0.046c0,0.011,0.011,0.023,0.023,0.034
					c0.011,0.011,0,0.023,0.023,0.034c0,0.011,0,0.023,0.023,0.023c0,0.023,0.023,0.046,0.023,0.057l0.023,0.023
					c0,0.023,0.011,0.034,0.023,0.068c0.011,0,0.011,0,0.023,0.011c0,0.011,0.011,0.034,0.023,0.046
					c0.011,0.011,0.011,0.011,0.023,0.023c0,0.023,0.011,0.046,0.023,0.057c0,0.011,0.023,0.023,0.023,0.023
					c0,0.023,0.023,0.046,0.023,0.068c0.023,0.011,0,0.023,0,0.023c0.023,0.023,0.034,0.034,0.046,0.046s0.011,0.011,0.011,0.023
					c0,0.011,0.023,0.034,0.034,0.057c0,0-0.011,0.011,0,0.011c0.011,0.023,0.023,0.046,0.034,0.068l0.023,0.023
					c0,0.023,0.023,0.046,0.023,0.068v0.011c0.023,0.023,0.046,0.034,0.057,0.057c0.011,0.023,0.034,0.046,0.034,0.068v0.011
					c0.023,0.034,0.034,0.057,0.046,0.068c0,0.011,0.023,0.011,0.023,0.011c0.091,0.182,0.182,0.375,0.284,0.535
					C266.103-199.031,265.125-195.572,262.372-194.047"/>
			</g>
			<path style="fill:#55ACEE;" d="M238.933-202.933c0-6.292-15.28-11.378-34.133-11.378s-34.133,5.086-34.133,11.378
				c0,6.292,15.28,11.378,34.133,11.378S238.933-196.641,238.933-202.933"/>
			<path style="fill:#FFCC4D;" d="M227.556-202.933c0-6.292-7.646-11.378-17.067-11.378c-9.432,0-17.067,5.086-17.067,11.378
				c0,6.292,7.634,11.378,17.067,11.378C219.91-191.556,227.556-196.641,227.556-202.933"/>
			<g>
				<path style="fill:#5C913B;" d="M201.353-187.983c-0.239,0-0.501,0.011-0.74,0.046c-4.255,0.569-8.294,1.411-12.015,2.514
					c-3.015,0.899-4.733,4.062-3.834,7.077c0.023,0.08,0.046,0.148,0.068,0.216c-0.046-0.091-0.08-0.171-0.125-0.262
					c-1.547-2.731-5.006-3.721-7.748-2.185c-3.868,2.162-7.339,4.767-10.32,7.748c-2.219,2.219-2.219,5.825,0,8.044
					c2.23,2.219,5.825,2.219,8.044,0c2.241-2.241,4.87-4.21,7.828-5.86c2.435-1.365,3.482-4.255,2.617-6.793
					c1.195,2.423,4.016,3.709,6.713,2.913c3.14-0.933,6.588-1.65,10.24-2.128c3.118-0.41,5.313-3.277,4.904-6.383
					C206.609-185.889,204.163-187.983,201.353-187.983 M217.509-206.062c-0.922,0-1.855,0.228-2.719,0.694
					c-2.765,1.502-3.777,4.949-2.287,7.703c1.82,3.345,3.743,6.383,5.712,9.045c-1.57-0.068-3.209-0.091-4.881-0.091
					c-3.152,0-6.007,2.549-6.007,5.7c0,3.129,2.219,5.689,5.37,5.689c0.091,0,0.831-0.011,0.922-0.023
					c3.368,0.011,6.827,0.205,9.921,0.501c1.798,0.182,3.516-0.546,4.665-1.775c0.159,0.125,0.33,0.239,0.489,0.353
					c1.138,0.751,2.207,1.354,3.197,1.832c0.671,0.535,1.479,0.899,2.401,1.07c0.137,0.034,0.273,0.057,0.41,0.08
					c2.128,0.705,3.63,0.796,4.233,0.796c1.809,0,3.493-0.865,4.574-2.321c1.07-1.445,1.388-3.322,0.853-5.052
					c-0.933-3.026-3.004-3.709-6.667-4.437c-0.671-0.262-1.604-0.717-2.708-1.445c-2.139-1.411-4.915-1.195-6.815,0.387
					c1.559-2.014,1.627-4.904-0.023-6.997c-1.923-2.458-3.823-5.393-5.643-8.727C221.48-204.981,219.523-206.062,217.509-206.062"/>
				<path style="fill:#5C913B;" d="M173.454-161.359c-4.847,0-11.116,1.877-14.916,6.36c-5.814,6.884-9.25,15.69-8.715,22.448
					c0.137,1.798-1.627,3.254-3.356,3.709c-0.99,0.262-2.742,0.432-3.55-1.331c-0.671-1.434-2.355-2.037-3.777-1.388
					c-1.422,0.66-2.048,2.344-1.388,3.777c1.775,3.857,5.757,5.575,10.138,4.449c4.073-1.058,7.987-4.722,7.6-9.66
					c-0.41-5.257,2.56-12.618,7.396-18.33c2.537-3.004,6.963-4.21,9.967-4.335c2.446-0.125,3.686,0.432,3.948,0.683
					c-0.649,1.513-9.068,5.939-12.663,7.828c-3.061,1.616-3.971,3.812-4.198,5.37c-0.774,5.177,4.551,10.422,9.694,15.474
					c1.809,1.786,3.527,3.47,4.449,4.722c1.058,1.399,0.887,2.332,0.683,2.913c-0.796,2.128-4.187,4.233-8.283,5.143
					c-3.789,0.842-6.349,2.674-7.6,5.439c-1.638,3.652-0.774,8.431,2.662,14.62c0.774,1.388,2.503,1.866,3.88,1.104
					c1.365-0.762,1.866-2.492,1.104-3.868c-3.243-5.825-2.924-8.465-2.458-9.523c0.478-1.047,1.695-1.786,3.652-2.219
					c4.813-1.07,10.593-3.925,12.368-8.727c1.024-2.742,0.512-5.689-1.445-8.294c-1.195-1.582-3.061-3.413-5.018-5.359
					c-2.947-2.89-8.408-8.272-8.067-10.593c0.068-0.466,0.705-0.887,1.217-1.161c8.545-4.494,14.222-7.726,15.383-11.696
					c0.41-1.399,0.239-2.81-0.478-4.085c-1.104-1.923-3.402-3.106-6.656-3.402C174.524-161.336,174-161.359,173.454-161.359"/>
			</g>
			<g>
				<path style="fill:#FFCC4D;" d="M227.556-168.8c0-6.292-2.549-11.378-5.689-11.378c-3.14,0-5.689,5.086-5.689,11.378
					c0,6.281,2.549,11.378,5.689,11.378C225.007-157.422,227.556-162.519,227.556-168.8"/>
				<path style="fill:#FFCC4D;" d="M196.733-159.55c0-3.277-3.925-5.928-8.772-5.928c-4.836,0-8.772,2.651-8.772,5.928
					c0,3.277,3.937,5.928,8.772,5.928C192.808-153.622,196.733-156.273,196.733-159.55"/>
				<path style="fill:#FFCC4D;" d="M183.296-106.916c0.569-2.412-2.583-5.234-7.043-6.292c-4.449-1.058-8.533,0.046-9.102,2.458
					c-0.58,2.423,2.571,5.245,7.031,6.303C178.643-103.389,182.716-104.493,183.296-106.916"/>
			</g>
			<path style="fill:#C1694F;" d="M256.375-168.345c1.024-0.796,2.765,8.294,2.503,11.127c0,0.193-0.341,6.212,0.944,10.513
				c0.785,1.456,0.831,12.334-0.375,15.178c0.956,0.091,2.094,0.387,2.241,1.559c-4.415-1.638-5.45,9.296-9.694,15.565
				c-4.119,6.292-9.227,9.956-14.564,13.778c0.398,1.07,1.035,2.071,1.843,3.072c-6.542-3.277-16.737,8.59-31.801,7.703
				c-3.379-0.33-4.972-0.535-5.848-2.606c-2.81-0.228-5.666-0.865-5.666-4.562c0-0.887,0.808-2.503,2.606-2.514
				c2.458-0.717,4.46-0.159,6.133-3.595l0.444-3.55c0,0-2.207,2.799-3.413,3.254l0.74,1.513c-1.126,0.649-3.152,0.125-3.152,0.125
				s-4.369,2.048-7.885,1.502l-0.683,2.844c-0.614-1.741-1.991-1.65-2.185-3.311c-0.387,1.195-0.899,2.662-1.274,3.834
				c-1.24-1.684-0.865-3.493-1.32-5.257c-0.478-0.398-1.456-0.421-1.707,0.705c-0.125,1.388-0.296,1.513-0.296,3.163
				c-0.887-1.547-1.957-2.31-2.31-4.995l-0.944,2.97c0.034-3.493-2.97-5.586-5.825-8.044c-0.796-1.479,0.137-1.49,0.193-2.253
				l1.502-0.751l2.697,0.193c0.432-0.558,0.08-0.603,1.24-0.967c3.14-0.865,7.066,2.89,10.126-3.026
				c-1.399-1.183-2.822-3.948-2.378-4.471c0.558,0-1.138-0.796,1.161-0.068c-2.401-2.321-4.016-5.382-4.016-5.552
				c-0.273-0.66,0.967,0.08,0.705-1.104l0.569,0.068c-5.461-5.894-0.182-12.231-0.762-15.633c0.91-1.479,1.013,0.023,2.15,0.182
				c0.956-4.187,3.709-6.724,5.393-10.035l-3.538-0.046c0.08-1.57,1.502-3.061,2.628-4.437l-2.378-0.751
				c-1.695-0.876-2.822-1.798-4.016-3.118c-0.785-1.923,3.789-2.378,5.996-2.708l-0.08-2.31c3.447-0.33,7.43,0.694,7.43,0.887
				l0.865,0.66l1.946-1.07c0.649,0,1.661,2.594,1.195,4.597c1.252-1.49,2.446-3.891,3.698-5.393l1.172,0.159
				c1.07-1.695,2.537-3.379,3.618-5.074l1.183-0.455c0.694,0.228,1.286,0.319,1.661,1.673l0.546-0.956l1.889,1.297l1.331,0.262
				l0.99-1.616c0.569,0.228,1.149,1.49,1.172,2.822c0.592-1.172,0.751-1.081,1.195-1.377l0.876,1.832l4.722-4.415l3.573-0.205
				c1.286-0.865,4.767-1.399,5.359-0.011c2.867-1.229,6.246,0.159,6.076,1.525c2.64-1.047,6.702-0.341,6.702-0.171
				c0.489,0.068,1.741,1.297,0.558,2.219c-8.727,6.076-21.675,16.134-26.658,18.557c0,1.798-1.354,8.272-2.81,10.047l1.172,1.98
				c3.402-3.174,4.642-2.856,6.451-3.368c1.934-1.536,2.606-3.868,4.54-5.996l1.741-0.319c-1.206,3.038-2.697,5.973-6.303,9.933
				c1.866-0.933,4.949-3.425,7.031-5.222c1.365-2.287,1.764-4.119,3.015-6.986c0.91-0.58,1.843-2.697,1.718-0.933
				c-0.216,3.311-2.549,8.556-2.549,8.932c3.721-2.935,3.675-7.509,4.79-10.297c0.944-1.411,1.422-3.3,1.832-2.856l-1.081,8.602
				l-0.637,3.152c2.742-1.582,3.721-7.612,5.006-14.848c0-1.149,0.466-2.412,0.398-3.152c0.58-0.728,1.263-2.742,1.252-1.547
				c0,0,0,11.765-0.808,14.45c-0.205,1.445,0.341,3.8,0.341,3.8c1.001-4.881,2.071-10.172,3.095-15.041v-3.584l1.49-1.502
				c0.296,2.947,0.626,5.894,0.922,8.829l-1.115,10.524v3.004c-0.023,1.058,0.967,0.865,1.582-0.341
				c0.148-2.571,0.148-4.597,0.262-7.168c0.444-2.935,0.74-5.086,0.967-8.829C255.602-161.211,255.727-168.47,256.375-168.345"/>
		</g>
	</g>
</g>
<g>
</g>
<g>
</g>
<g>
</g>
<g>
</g>
<g>
</g>
<g>
</g>
<g>
</g>
<g>
</g>
<g>
</g>
<g>
</g>
<g>
</g>
<g>
</g>
<g>
</g>
<g>
</g>
<g>
</g>
</svg>
