<?xml version="1.0" encoding="iso-8859-1"?>
<!-- Generator: Adobe Illustrator 19.0.0, SVG Export Plug-In . SVG Version: 6.00 Build 0)  -->
<svg version="1.1" id="Capa_1" xmlns="http://www.w3.org/2000/svg" xmlns:xlink="http://www.w3.org/1999/xlink" x="0px" y="0px"
	 viewBox="0 0 512 512" style="enable-background:new 0 0 512 512;" xml:space="preserve">
<g transform="matrix(1.25 0 0 -1.25 0 45)">
	<g>
		<g>
			<path style="fill:#006C35;" d="M364.089-20.889H45.511C20.378-20.889,0-41.266,0-66.4v-204.8
				c0-25.134,20.378-45.511,45.511-45.511h318.578c25.134,0,45.511,20.378,45.511,45.511v204.8
				C409.6-41.266,389.222-20.889,364.089-20.889"/>
			<g>
				<path style="fill:#FFFFFF;" d="M96.677-103.298c-0.512-6.997-1.138-19.297,4.801-20.56c7.191-0.694,3.22,12.163,5.825,14.495
					c0.489,1.149,1.399,1.149,1.468-0.296v-10.911c-0.057-3.538,2.276-4.585,4.073-5.313c1.889,0.137,3.152,0.08,3.891-1.752
					c0.296-6.281,0.58-12.572,0.876-18.864c0,0,4.38-1.252,4.585,10.615c0.205,6.963-1.388,12.789-0.455,14.143
					c0.034,1.331,1.729,1.411,2.913,0.762c1.877-1.32,2.719-2.958,5.632-2.31c4.449,1.229,7.111,3.391,7.179,6.793
					c-0.262,3.243-0.626,6.485-2.025,9.728c0.193,0.592-0.853,2.116-0.66,2.708c0.796-1.252,2.002-1.149,2.287,0
					c-0.762,2.492-1.934,4.881-3.834,5.916c-1.57,1.377-3.868,1.092-4.71-1.798c-0.387-3.322,1.195-7.27,3.618-10.49
					c0.523-1.263,1.24-3.356,0.922-5.245c-1.297-0.728-2.583-0.432-3.664,0.717c0,0-3.538,2.651-3.538,3.243
					c0.944,6.007,0.216,6.69-0.307,8.351c-0.364,2.298-1.456,3.038-2.332,4.608c-0.887,0.933-2.082,0.933-2.651,0
					c-1.57-2.708-0.842-8.522,0.296-11.127c0.808-2.401,2.059-3.903,1.468-3.903c-0.489-1.354-1.49-1.035-2.219,0.523
					c-1.047,3.231-1.252,8.055-1.252,10.217c-0.319,2.697-0.649,8.431-2.423,9.887c-1.081,1.468-2.685,0.762-3.243-0.592
					c-0.114-2.662-0.137-5.336,0.171-7.794c1.217-4.324,1.593-8.112,2.185-12.538c0.159-5.916-3.425-2.56-3.254,0.364
					c0.819,3.812,0.603,9.819-0.125,11.344c-0.58,1.513-1.274,1.9-2.697,1.65c-1.115,0.057-4.016-3.095-4.824-8.34
					c0,0-0.694-2.708-0.99-5.097c-0.398-2.708-2.185-4.619-3.436,0.375C99.146-110.159,98.486-101.205,96.677-103.298"/>
				<path style="fill:#FFFFFF;" d="M116.201-131.993c-6.349-3.095-12.481-5.985-18.716-8.988
					c0.228,4.244,8.897,11.901,14.814,12.015C116.144-129.08,115.177-130.468,116.201-131.993"/>
				<path style="fill:#FFFFFF;" d="M132.631-134.667c-0.205-0.387-1.104-0.228-1.764-0.228c-0.751,0.023-1.104,0.159-1.559,0.762
					c-0.216,0.683,0.432,1.343,0.717,1.843c0.353,0.603,2.253,1.229,2.924-0.466C133.245-133.495,132.983-134.28,132.631-134.667
					 M161.803-125.371c-0.148-0.899-0.284-1.798-0.421-2.697c-0.171-0.876-1.911-0.91-1.98,0.205
					c-0.762,3.47-3.925,3.925-5.837-1.456c-1.286-1.047-3.607-1.263-3.846,0.307c0.307,3.607-1.161,4.096-4.073,2.401
					c-0.933,7.145-1.866,13.983-2.81,21.14c1.217,0.046,2.332-0.865,3.436,0.523c-1.217,3.789-3.789,11.537-5.211,12.083
					c-0.694,0.842-1.286,0.319-2.185,0.114c-1.525-0.489-2.947-1.809-2.503-4.38c1.809-10.98,2.992-19.342,4.801-30.322
					c0.273-1.286-0.808-2.981-2.196-2.81c-2.355,1.593-2.947,4.836-6.975,4.688c-2.924-0.034-6.258-3.186-6.679-6.246
					c-0.478-2.435-0.66-5.074,0-7.191c2.059-2.469,4.517-2.23,6.679-1.673c1.764,0.74,3.231,2.503,3.846,2.082
					c0.421-0.512,0.114-6.349-8.329-10.832c-5.109-2.287-9.17-2.81-11.355,1.354c-1.354,2.606,0.102,12.504-3.231,10.217
					c-9.865-25.429,23.086-28.968,26.772-1.047c0.353,1.149,1.741,2.298,1.98,0.421c-0.762-25.281-25.486-27.022-29.685-19.069
					c-1.047,1.877-1.365,6.042-1.468,8.545c-0.626,4.961-3.231,3.049-3.641-1.877c-0.421-2.742-0.319-3.504-0.319-6.144
					c1.32-19.968,33.178-11.389,38.343,5.097c2.742,9.136-0.444,15.872,1.047,15.849c3.152-3.413,7.566-0.466,8.533,0.717
					c0.421,0.592,1.468,0.979,2.196,0.216c2.469-1.775,6.804-0.933,7.714,2.185c0.512,3.049,0.933,6.212,1.035,9.478
					C163.43-124.119,161.94-124.529,161.803-125.371"/>
				<path style="fill:#FFFFFF;" d="M163.032-98.03h-0.011c-0.603-0.148-1.377,0.387-1.729,1.183
					c-0.364,0.808-0.171,1.559,0.421,1.707h0.011c0.592,0.148,1.365-0.387,1.729-1.183C163.817-97.12,163.624-97.882,163.032-98.03
					 M164.716-98.03c2.321,1.354,1.582,4.324,0.364,5.678c-2.014,0.91-3.766,0.614-5.052-0.046c-1.627-1.57-2.014-4.073-0.728-5.632
					c1.252-0.592,2.503-1.855,1.661-2.549c-3.834-4.107-14.336-11.173-13.119-11.412c0.262-0.341,6.713-0.33,6.918,0
					c1.991,0.728,11.366,11.457,11.366,11.457c-0.489,0.421-0.922,0.728-1.411,1.149C164.193-98.929,164.25-98.485,164.716-98.03"/>
				<path style="fill:#FFFFFF;" d="M98.133-149.993c-3.516-5.598-3.823-13.972-1.877-16.464c1.024-1.183,2.719-1.707,3.982-1.331
					c2.196,0.956,3.174,5.439,2.64,7.077c-0.728,1.149-1.308,1.331-2.048,0.353c-1.547-3.163-2.207-0.99-2.332,0.774
					c-0.239,3.345,0.08,6.428,0.432,8.863C99.317-148.218,98.93-148.98,98.133-149.993"/>
				<path style="fill:#FFFFFF;" d="M248.434-141.015c-3.413,7.327-8.112,14.552-9.614,17.328
					c-1.502,2.788-12.811,19.194-14.461,21.038c-3.675,4.369,5.951-1.82-1.229,6.849c-2.742,2.355-2.901,2.492-5.177,4.415
					c-1.138,0.819-3.937,2.298-4.437-0.159c-0.25-2.173-0.114-3.356,0.25-5.166c0.273-1.206,2.037-3.231,2.901-4.392
					c11.48-15.428,21.641-31.004,31.46-50.574C249.674-150.948,249.333-142.233,248.434-141.015"/>
				<path style="fill:#FFFFFF;" d="M233.506-165.5c-0.671-0.751,1.65-3.971,4.665-3.971c5.052,0.592,9.478,3.425,13.585,10.877
					c1.104,1.741,3.038,5.461,3.095,8.34c0.375,16.907-0.842,30.071-3.379,42.291c-0.171,1.195-0.068,2.594,0.137,2.947
					c0.319,0.387,1.434,0,2.014,0.956c0.865,0.887-2.287,8.169-4.085,10.98c-0.626,1.252-0.853,2.094-1.911-0.148
					c-1.115-1.82-1.855-4.995-1.764-7.953c2.401-16.657,3.14-31.221,4.71-47.866c0.137-1.616-0.114-3.959-1.183-4.881
					C245.441-158.071,239.718-163.157,233.506-165.5"/>
				<path style="fill:#FFFFFF;" d="M301.602-165.409c-3.607-2.105-3.618-4.506-0.694-4.585c5.04,0.58,10.991,1.001,15.11,7.202
					c1.092,1.741,2.412,6.44,2.458,9.33c0.387,16.907-0.216,29.525-2.753,41.745c-0.159,1.195-0.683,3.937-0.489,4.289
					c0.33,0.842,1.968-0.091,2.56,0.876c0.865,0.876-4.255,7.452-6.042,10.251c-0.649,1.263-0.876,2.094-1.923-0.137
					c-1.115-1.82-1.502-5.086-1.058-7.964c2.674-18.079,4.665-31.664,5.074-47.684c-0.228-1.525-0.284-2.344-1.001-4.255
					c-1.57-2.025-3.322-4.562-4.961-5.78S302.751-164.511,301.602-165.409"/>
				<path style="fill:#FFFFFF;" d="M304.31-149.207c-0.034,4.233,0.068,7.873-0.08,11.036c-0.137,3.152-0.683,5.723-1.786,7.953
					c-1.035,2.401-0.387,4.335-0.876,6.884c-0.478,2.56-0.353,6.383-1.092,9.421c-0.193,1.183-0.819,4.983-0.637,5.336
					c0.307,0.853,1.434-0.023,1.991,0.956c0.842,0.91-2.879,10.536-4.767,13.278c-0.671,1.229-1.911,0.808-3.425-1.195
					c-1.399-1.308-0.887-4.324-0.353-7.179c3.63-18.876,6.315-35.965,5.723-53.931C298.837-158.185,304.356-152.097,304.31-149.207"
					/>
				<path style="fill:#FFFFFF;" d="M277.595-125.792c-2.276,0.046-7.043,4.426-8.431,6.997c-0.523,1.479-0.193,2.913,0.273,3.755
					c0.831,0.546,2.139,1.161,3.106,0.58c0,0,1.013-1.411,0.808-1.593c1.24-0.592,1.764-0.25,1.9,0.25
					c0.08,0.887-0.364,1.411-0.375,2.389c0.535,2.651,3.55,3.049,4.688,1.365c0.831-1.024,1.126-3.209,1.263-4.676
					c-0.011-0.762-1.229,0.125-1.934-0.057c-0.683-0.182-0.853-0.978-0.91-1.695C277.857-120.399,277.641-123.471,277.595-125.792"
					/>
				<path style="fill:#FFFFFF;" d="M235.6-153.895c0.626,5.746-0.228,15.974-0.284,19.365c-0.239,8.01-1.547,23.484-2.173,26.066
					c-0.694,4.87,2.014-0.535,1.638,2.298c-0.876,4.858-3.584,8.158-6.747,12.618c-1.024,1.445-0.99,1.741-2.571-0.364
					c-1.752-3.959-0.239-6.69,0.216-9.774c2.287-10.058,3.618-19.308,4.244-28.456c0.626-9.159,0.808-19.046,0.25-28.683
					C231.879-160.892,234.633-158.048,235.6-153.895"/>
				<path style="fill:#FFFFFF;" d="M312.058-144.679c-4.016,6.736-10.069,14.017-11.674,16.737
					c-1.627,2.708-15.303,20.355-17.055,22.13c-4.995,5.257,2.31,0.853-0.944,4.915c-2.765,3.026-3.561,3.971-5.916,5.791
					c-1.183,0.762-1.9,2.219-2.287-0.273c-0.148-2.173-0.319-4.699-0.171-6.542c0-1.024,1.058-2.935,1.98-4.073
					c12.129-14.905,25.361-30.128,36.011-49.254C313.526-154.453,313.025-145.862,312.058-144.679"/>
				<path style="fill:#FFFFFF;" d="M168.641-97.575c-3.652-10.433,2.094-21.857,6.076-20.753c2.879-1.183,4.71,4.278,5.882,10.274
					c0.808,1.684,1.411,1.855,1.82,1.001c-0.102-7.976,0.58-9.739,2.628-12.151c4.563-3.527,8.34-0.455,8.647-0.159l3.55,3.561
					c0.785,0.831,1.843,0.887,2.958,0.148c1.092-0.99,0.944-2.697,3.265-3.88c1.957-0.785,6.144-0.182,7.111,1.513
					c1.308,2.23,1.627,3.004,2.219,3.846c0.933,1.24,2.526,0.694,2.526,0.296c-0.148-0.694-1.081-1.377-0.444-2.628
					c1.115-0.831,1.365-0.296,2.025-0.114c2.321,1.115,4.05,6.155,4.05,6.155c0.102,1.877-0.944,1.718-1.627,1.331
					c-0.899-0.535-0.944-0.717-1.843-1.263c-1.126-0.171-3.334-0.922-4.403,0.762c-1.115,2.025-1.138,4.847-1.98,6.884
					c0,0.159-1.479,3.22-0.102,3.413c0.694-0.125,2.173-0.512,2.401,0.728c0.717,1.206-1.559,4.642-3.106,6.372
					c-1.365,1.49-3.243,1.661-5.04,0.148c-1.274-1.172-1.092-2.469-1.343-3.709c-0.319-1.411-0.25-3.163,1.195-5.04
					c1.263-2.492,3.573-5.7,2.81-10.217c0,0-1.354-2.139-3.698-1.866c-0.978,0.216-2.571,0.637-3.413,6.906
					c-0.649,4.733,0.148,11.378-1.866,14.484c-0.728,1.877-1.252,3.686-3.026,0.478c-0.478-1.263-2.526-3.174-1.035-7.111
					c1.206-2.492,1.695-6.554,1.149-11.082c-0.842-1.286-1.024-1.718-2.128-3.004c-1.547-1.661-3.22-1.24-4.506-0.614
					c-1.206,0.808-2.139,1.229-2.697,3.8c0.102,4.096,0.33,10.809-0.421,12.231c-1.104,2.207-2.924,1.411-3.698,0.74
					c-3.743-3.413-5.598-9.182-6.724-13.778c-1.035-3.356-2.139-2.389-2.913-1.035C171.054-109.146,170.928-95.3,168.641-97.575"/>
				<path style="fill:#FFFFFF;" d="M202.911-148.912c-2.298-0.785-4.494-1.399-4.506-4.722c0.842-4.619-1.172-3.026-2.367-2.401
					c-1.422,1.013-5.393,3.459-5.951,8.738c-0.091,1.263,0.899,2.321,2.48,2.321c2.378-0.66,5.894-0.694,8.943-1.013
					C203.992-146.147,205.232-148.092,202.911-148.912 M211.513-127.294c0.33,0.546,1.377,0.512,2.367-0.057
					c0.99-0.58,1.547-1.479,1.229-2.025l0,0c-0.319-0.546-1.388-0.512-2.378,0.068C211.74-128.739,211.194-127.84,211.513-127.294z
					 M228.033-140.003l-21.402,0.102c-1.104,0.421-0.785,0.785,0,1.081c5.109,0.694,14.199,2.185,14.791,10.9
					c-0.091,4.551-1.946,7.521-7.532,8.351c-4.085-0.319-7.009-4.289-6.542-8.658c-0.193-1.172,0.387-3.47-0.808-3.732
					c-7.862-0.728-16.43-5.632-16.714-9.159c-0.489-0.33-1.547,0.626-1.411,2.128c-0.307,6.087-2.298,12.971-5.404,18.284
					c-2.48,2.469-1.707,1.65-3.368,0.478c-1.07-1.229-1.263-2.071-1.206-4.517c0-0.08,2.002-5.678,3.698-9.591
					c1.126-4.005,2.196-8.602,1.422-12.925c-2.64-5.734-7.942-10.877-13.073-13.665c-2.64-0.853-4.892-0.546-5.461,0.046
					c-1.616,1.081-1.536,3.106-1.422,3.14c4.312,3.015,9.25,5.439,13.119,13.551c1.138,3.106,1.479,4.972,0.353,9.774
					c-0.455,1.798-1.024,3.254-2.241,4.528c0.683,0.444,2.685-1.058,2.981-0.159c-0.444,2.298-2.002,5.37-3.766,6.94
					c-1.536,1.399-3.209,1.559-4.608,0.284c-1.593-0.887-1.934-4.062-1.172-6.827c0.842-2.094,3.129-2.446,4.767-6.656
					c0-0.091,0.592-3.14-0.25-4.335c-0.671-2.094-9.375-8.932-9.865-9.239c-0.239-0.296-0.125,0.148-0.159,1.286
					c-0.068,1.388,0.558,4.665,0.387,4.688c-2.833-1.832-3.777-7.441-4.289-9.102c-7.168-4.961-15.28-8.647-19.968-13.665
					c-2.446-3.812,16.816,4.38,19.058,5.37c0.489-0.375,0.432-2.082,1.786-3.63c1.991-2.708,6.235-4.38,10.377-3.345
					c6.952,2.514,10.957,7.248,15.03,12.493c0.58,0.853,1.49,1.502,2.332,0.853c2.799-6.281,10.889-10.706,21.322-11.173
					c2.423,2.935,1.252,4.358,0.284,4.983c0,0.091-5.165,2.048-5.939,4.005c-0.478,1.764,0.671,3.334,3.004,4.517
					c6.702,0.808,13.289,1.707,19.661,3.755c0.068,2.139,1.308,5.348,2.162,6.736c0.842,1.399,1.286,0.967,1.149,1.479
					L228.033-140.003z"/>
				<path style="fill:#FFFFFF;" d="M123.631-97.689c2.458-1.183,7.1-0.683,6.895,3.3c0,0.341-0.091,1.536-0.125,1.855
					c-0.501,1.172-1.866,0.887-2.185-0.33c-0.091-0.387,0.171-1.035-0.182-1.24c-0.205-0.205-0.99-0.08-0.956,1.013
					c0,0.353-0.262,0.728-0.41,0.944c-0.159,0.114-0.262,0.137-0.546,0.137c-0.341-0.011-0.341-0.102-0.523-0.398
					c-0.08-0.284-0.193-0.569-0.193-0.91c-0.046-0.387-0.182-0.523-0.478-0.58c-0.319,0-0.25-0.034-0.501,0.125
					c-0.159,0.171-0.353,0.239-0.353,0.523c0,0.296-0.068,0.774-0.159,0.978c-0.137,0.182-0.353,0.262-0.603,0.33
					c-1.343-0.011-1.434-1.536-1.354-2.128C121.856-94.173,121.799-96.927,123.631-97.689"/>
				<path style="fill:#FFFFFF;" d="M195.8-128.204c2.469-1.172,8.329-0.501,6.895,3.3c0,0.353-0.08,1.536-0.125,1.866
					c-0.501,1.161-1.866,0.876-2.185-0.33c-0.091-0.398,0.182-1.047-0.182-1.24c-0.205-0.216-0.99-0.091-0.956,1.013
					c0,0.353-0.262,0.717-0.41,0.944c-0.159,0.102-0.262,0.125-0.546,0.125c-0.341-0.011-0.33-0.102-0.523-0.387
					c-0.08-0.296-0.193-0.58-0.193-0.91c-0.034-0.398-0.182-0.535-0.466-0.592c-0.33,0-0.25-0.034-0.512,0.125
					c-0.159,0.171-0.353,0.239-0.353,0.523c0,0.307-0.068,0.785-0.159,0.99c-0.125,0.171-0.353,0.25-0.592,0.319
					c-1.354-0.011-1.445-1.536-1.365-2.116C194.025-124.688,193.968-127.442,195.8-128.204"/>
				<path style="fill:#FFFFFF;" d="M237.898-115.552c2.458-1.183,7.088-0.683,6.884,3.3c0,0.341-0.08,1.536-0.114,1.855
					c-0.501,1.172-1.866,0.876-2.185-0.33c-0.091-0.387,0.171-1.035-0.182-1.24c-0.205-0.205-0.99-0.08-0.956,1.013
					c0,0.353-0.273,0.728-0.41,0.944c-0.159,0.114-0.262,0.137-0.546,0.137c-0.341-0.023-0.341-0.102-0.523-0.398
					c-0.08-0.296-0.193-0.569-0.193-0.91c-0.046-0.387-0.182-0.535-0.478-0.58c-0.319,0-0.25-0.034-0.512,0.125
					c-0.148,0.171-0.341,0.228-0.341,0.523s-0.068,0.774-0.159,0.978c-0.137,0.182-0.353,0.262-0.603,0.319
					c-1.343,0-1.434-1.536-1.354-2.116C236.123-112.036,236.066-114.79,237.898-115.552"/>
				<path style="fill:#FFFFFF;" d="M259.698-147.319c-4.289-4.836-2.401-12.834-1.434-14.564c1.411-2.822,2.56-4.642,5.313-6.042
					c2.503-1.843,4.449-0.694,5.53,0.603c2.526,2.617,2.56,9.284,3.743,10.615c0.831,2.435,2.924,2.014,3.937,0.933
					c0.99-1.411,2.139-2.321,3.584-3.095c2.355-2.082,5.165-2.458,7.942-0.558c1.889,1.058,3.118,2.435,4.233,5.154
					c1.229,3.288,0.546,18.5,0.296,27.511c-0.102,0.705-2.446,12.39-2.446,12.527c0,0.125-0.307,5.973-0.569,7.361
					c-0.046,0.558-0.182,0.728,0.41,0.649c0.614-0.523,0.705-0.558,1.092-0.74c0.637-0.102,1.206,0.967,0.831,1.957
					c-1.957,3.618-3.925,7.225-5.882,10.832c-0.466,0.466-1.081,0.978-1.82-0.125c-0.728-0.626-1.479-1.764-1.456-3.22
					c0.182-2.571,0.626-5.177,0.796-7.748c0.785-4.392,1.57-8.784,2.344-13.175c0.751-9.409,0.933-17.089,1.673-26.487
					c-0.102-3.982-1.331-7.452-2.503-7.953c0,0-1.764-1.024-2.947,0.102c-0.865,0.353-4.312,5.746-4.312,5.746
					c-1.764,1.616-2.924,1.149-4.176,0c-3.459-3.345-5.018-9.591-7.361-13.892c-0.614-0.967-2.321-1.786-4.221,0.068
					C257.479-154.271,260.301-144.907,259.698-147.319"/>
				<path style="fill:#FFFFFF;" d="M239.047-92.501c2.207-0.922,3.766-5.393,3.254-7.578c-0.432-2.697-1.604-5.609-2.446-5.234
					c-0.922,0.341,0.626,2.685-0.25,5.143c-0.489,1.604-3.504,4.528-3.197,5.393C235.793-92.967,237.705-92.182,239.047-92.501"/>
				<path style="fill:#FFFFFF;" d="M266.798-149.97c0.466,5.37-0.319,8.636-0.455,11.799c-0.148,3.14-3.573,27.216-4.267,29.594
					c-0.831,4.517,3.334,0.603,2.879,3.231c-1.445,3.311-5.04,8.124-6.167,11.002c-0.683,1.229-0.387,2.321-1.911,0.319
					c-1.399-4.597-1.889-8.363-1.354-11.218c3.618-18.887,7.316-34.577,6.736-52.543
					C263.976-157.809,265.956-153.861,266.798-149.97"/>
				<path style="fill:#FFFFFF;" d="M304.492-100.078c2.014-1.001,3.186-6.599,2.97-8.203c-0.398-2.913-1.468-6.076-2.241-5.666
					c-0.831,0.375,0.171,4.335-0.228,5.575c-0.444,1.729-3.186,4.892-2.901,5.825C301.522-100.59,303.263-99.737,304.492-100.078"/>
				<path style="fill:#FFFFFF;" d="M155.034-139.821c1.923-0.74,3.049-4.847,2.833-6.03c-0.375-2.139-1.399-4.46-2.139-4.153
					c-0.785,0.262,0.171,3.174-0.216,4.085c-0.159,2.196-2.833,3.334-2.776,4.278C152.235-139.889,153.85-139.57,155.034-139.821"/>
				<path style="fill:#FFFFFF;" d="M103.606-91.169c2.844-0.853,3.004-5.029,2.799-6.246c-0.387-2.23-1.388-4.631-2.105-4.312
					c-0.785,0.273-0.034,3.3-0.41,4.233c-0.421,1.331-2.822,3.732-2.549,4.449C100.807-91.556,102.434-90.908,103.606-91.169"/>
				<path style="fill:#FFFFFF;" d="M159.63-110.887c-2.173-1.183-3.026-4.688-1.661-6.724c1.263-1.809,3.265-1.138,3.527-1.138
					c2.139-0.262,3.402,4.005,3.402,4.005s0.068,1.195-2.469-1.081c-1.07-0.193-1.195,0.205-1.468,0.808
					c-0.216,1.104-0.171,2.219,0.33,3.334C161.678-110.625,160.848-110.159,159.63-110.887"/>
				<path style="fill:#FFFFFF;" d="M175.991-89.565c-1.092-0.728-3.277-2.992-3.345-5.586c-0.057-1.468-0.33-1.468,0.626-2.401
					c0.694-1.001,1.399-0.91,2.799-0.171c0.808,0.58,1.07,0.978,1.343,1.968c0.33,1.673-1.764-0.785-2.025,1.07
					c-0.466,1.729,0.876,2.423,2.139,4.096C177.573-89.451,177.55-88.644,175.991-89.565"/>
				<path style="fill:#FFFFFF;" d="M189.156-91.898c-0.478-1.035-1.035-6.485-0.944-6.485c-0.375-1.616,1.695-2.31,2.64-0.228
					c1.411,3.823,1.411,5.439,1.513,7.066C191.92-89.076,190.259-89.156,189.156-91.898"/>
				<path style="fill:#FFFFFF;" d="M272.122-134.098c0.273,0.284,11.685,8.397,11.685,8.397c1.172,0.41,0.91-4.187,0.387-4.153
					c0.216-0.91-11.264-8.704-12.072-8.385C271.553-138.649,270.985-135.099,272.122-134.098"/>
				<path style="fill:#FFFFFF;" d="M282.522-134.098c2.014-1.001,2.81-6.884,2.583-8.488c0.08-3.106-1.923-5.598-2.697-5.188
					c-0.831,0.364,0.068,3.857-0.33,5.097c-0.444,1.729-2.15,4.995-1.855,5.928C279.654-134.792,281.293-133.756,282.522-134.098"/>
				<path style="fill:#FFFFFF;" d="M214.665-159.379c0.785,1.161,3.243,2.822,3.3,2.822c1.138,0.569,2.23-0.444,2.162-0.375
					c0.193-1.138-0.705-2.173-0.432-3.686c0.25-0.614,0.432-1.297,1.547-1.035c1.809,1.434,3.493,1.525,5.302,1.604
					c1.388-0.068,1.445-2.423,0.569-2.435c-3.345-0.74-4.847-1.627-7.236-2.549c-1.138-0.66-2.105,0.182-2.105,0.273
					c0,0.091-0.66,0.649-0.193,2.15c0.08,1.195-0.398,1.855-1.399,1.718c-0.762-0.41-1.422-0.671-1.798,0.193
					C214.232-160.073,214.175-159.755,214.665-159.379"/>
				<path style="fill:#FFFFFF;" d="M294.525-162.554c0.489-0.626,0.808-1.183-0.034-2.207c-0.796-0.74-1.365-1.149-2.162-1.877
					c-0.387-0.649-0.626-1.627,0.535-1.934c2.128-0.603,7.066,2.594,7.066,2.662c0.796,0.603,0.523,1.729,0.466,1.729
					c-0.466,0.535-1.513,0.228-2.23,0.319c-0.33,0-1.445,0.159-0.91,1.138c0.432,0.603,0.592,0.978,0.887,1.729
					c0.341,0.728,0.046,1.217-1.149,1.616c-1.229,0.228-1.718,0.114-3.072,0c-0.728-0.148-0.979-0.478-1.104-1.365
					C292.875-162.087,293.683-162.019,294.525-162.554"/>
				<path style="fill:#FFFFFF;" d="M290.133-225.689h-17.067V-220c0,3.14-2.549,5.689-5.689,5.689c-3.14,0-5.689-2.549-5.689-5.689
					v-5.689h-91.022h-11.378h-34.133c0,0,0-11.378,34.133-11.378h102.4v-5.689c0-3.14,2.549-5.689,5.689-5.689
					c3.14,0,5.689,2.549,5.689,5.689v5.689h11.378v-5.689c0-3.14,2.549-5.689,5.689-5.689c3.14,0,5.689,2.549,5.689,5.689v11.378
					C295.822-228.238,293.274-225.689,290.133-225.689"/>
			</g>
		</g>
	</g>
</g>
<g>
</g>
<g>
</g>
<g>
</g>
<g>
</g>
<g>
</g>
<g>
</g>
<g>
</g>
<g>
</g>
<g>
</g>
<g>
</g>
<g>
</g>
<g>
</g>
<g>
</g>
<g>
</g>
<g>
</g>
</svg>
