<?xml version="1.0" encoding="iso-8859-1"?>
<!-- Generator: Adobe Illustrator 19.0.0, SVG Export Plug-In . SVG Version: 6.00 Build 0)  -->
<svg version="1.1" id="Capa_1" xmlns="http://www.w3.org/2000/svg" xmlns:xlink="http://www.w3.org/1999/xlink" x="0px" y="0px"
	 viewBox="0 0 512 512" style="enable-background:new 0 0 512 512;" xml:space="preserve">
<path style="fill:#EEEEEE;" d="M455.111,71.111H56.889C25.472,71.111,0,96.583,0,128v256c0,31.417,25.472,56.889,56.889,56.889
	h398.222C486.528,440.889,512,415.417,512,384V128C512,96.583,486.528,71.111,455.111,71.111z"/>
<path style="fill:#C60C30;" d="M304.945,186.098c-38.599-27.022-91.804-17.636-118.841,20.964c-0.018,0.024-0.033,0.05-0.049,0.074
	c0.018-0.026,0.035-0.053,0.054-0.079c-11.582,16.531-9.787,38.438,3.125,52.887c2.15,2.404,4.597,4.607,7.353,6.538
	c14.149,9.905,32.213,10.007,46.18,1.764c5.082-3.002,9.625-7.1,13.23-12.249c13.511-19.285,40.149-23.979,59.42-10.468
	c4.114,2.88,7.557,6.359,10.309,10.231c10.168,14.295,10.816,34.004,0.183,49.18C352.945,266.354,343.558,213.148,304.945,186.098z"
	/>
<path style="fill:#003478;" d="M315.416,245.528c-19.271-13.511-45.909-8.818-59.42,10.468c-3.605,5.149-8.148,9.248-13.23,12.25
	c-13.965,8.248-32.037,8.143-46.176-1.754c-2.758-1.933-5.206-4.14-7.357-6.547c-12.911-14.45-14.707-36.355-3.125-52.887
	c-0.018,0.026-0.035,0.053-0.054,0.079c-26.983,38.621-17.569,91.758,21.003,118.762c38.613,27.051,91.804,17.664,118.841-20.949
	c10.632-15.186,9.985-34.894-0.173-49.19C322.973,251.886,319.53,248.408,315.416,245.528z"/>
<g>
	<polygon style="fill:#292F33;" points="373.528,331.028 346.094,363.725 356.988,372.856 384.422,340.173 	"/>
	<polygon style="fill:#292F33;" points="420.968,296.616 410.088,287.457 382.667,320.14 393.562,329.285 	"/>
	<polygon style="fill:#292F33;" points="395.305,349.32 367.885,382.002 378.779,391.146 406.199,358.479 	"/>
	<polygon style="fill:#292F33;" points="442.774,314.893 431.88,305.748 404.445,338.416 415.339,347.575 	"/>
	<polygon style="fill:#292F33;" points="389.662,400.294 400.571,409.425 428.005,376.757 417.097,367.612 	"/>
	<polygon style="fill:#292F33;" points="426.236,356.709 437.144,365.854 464.551,333.171 453.671,324.027 	"/>
	<polygon style="fill:#292F33;" points="453.679,187.967 464.587,178.836 437.138,146.139 426.244,155.284 	"/>
	<polygon style="fill:#292F33;" points="428.001,135.251 400.581,102.554 389.701,111.699 417.107,144.396 	"/>
	<polygon style="fill:#292F33;" points="442.783,197.106 378.797,120.846 367.889,129.991 431.889,206.251 	"/>
	<polygon style="fill:#292F33;" points="384.417,171.806 356.996,139.123 346.116,148.283 373.522,180.965 	"/>
	<polygon style="fill:#292F33;" points="421.005,215.391 393.556,182.709 382.661,191.868 410.096,224.522 	"/>
	<polygon style="fill:#292F33;" points="91.028,296.602 155.014,372.876 165.908,363.717 101.908,287.457 	"/>
	<polygon style="fill:#292F33;" points="96.654,347.575 107.548,338.43 80.128,305.733 69.234,314.893 	"/>
	<polygon style="fill:#292F33;" points="105.793,358.479 133.228,391.146 144.122,382.016 116.687,349.32 	"/>
	<polygon style="fill:#292F33;" points="47.431,333.171 111.431,409.431 122.325,400.286 58.34,324.027 	"/>
	<polygon style="fill:#292F33;" points="122.305,111.701 111.411,102.556 47.411,178.83 58.319,187.961 	"/>
	<polygon style="fill:#292F33;" points="80.111,206.245 144.111,129.985 133.203,120.84 69.217,197.114 	"/>
	<polygon style="fill:#292F33;" points="101.904,224.53 165.89,148.271 154.995,139.126 90.995,215.386 	"/>
</g>
<g>
</g>
<g>
</g>
<g>
</g>
<g>
</g>
<g>
</g>
<g>
</g>
<g>
</g>
<g>
</g>
<g>
</g>
<g>
</g>
<g>
</g>
<g>
</g>
<g>
</g>
<g>
</g>
<g>
</g>
</svg>
