<?xml version="1.0" encoding="iso-8859-1"?>
<!-- Generator: Adobe Illustrator 19.0.0, SVG Export Plug-In . SVG Version: 6.00 Build 0)  -->
<svg version="1.1" id="Capa_1" xmlns="http://www.w3.org/2000/svg" xmlns:xlink="http://www.w3.org/1999/xlink" x="0px" y="0px"
	 viewBox="0 0 512 512" style="enable-background:new 0 0 512 512;" xml:space="preserve">
<g transform="matrix(1.25 0 0 -1.25 0 45)">
	<g>
		<g>
			<g>
				<path style="fill:#0038A8;" d="M0-271.2c0-25.134,20.378-45.511,45.511-45.511h318.578c25.134,0,45.511,20.378,45.511,45.511
					v11.378H0V-271.2z"/>
				<path style="fill:#0038A8;" d="M0-225.689h409.6v45.511H0V-225.689z"/>
			</g>
			<path style="fill:#EEEEEE;" d="M0-259.822h409.6v34.133H0V-259.822z"/>
			<g>
				<path style="fill:#0038A8;" d="M409.6-66.4c0,25.134-20.378,45.511-45.511,45.511H182.044V-66.4H409.6z"/>
				<path style="fill:#0038A8;" d="M182.044-146.044H409.6v45.511H182.044V-146.044z"/>
			</g>
			<path style="fill:#EEEEEE;" d="M182.044-66.4v45.511h-5.689H45.511C20.378-20.889,0-41.266,0-66.4v-105.244v-8.533h182.044H409.6
				v34.133H182.044v45.511H409.6V-66.4H182.044z"/>
			<path style="fill:#FFD983;" d="M147.911-100.533c0,31.425-25.463,56.889-56.889,56.889s-56.9-25.463-56.9-56.889
				c0-31.414,25.475-56.889,56.9-56.889S147.911-131.947,147.911-100.533"/>
			<path style="fill:#FFCC4D;" d="M136.533-100.533c0,25.134-20.366,45.511-45.511,45.511S45.5-75.4,45.5-100.533
				c0-25.122,20.378-45.511,45.522-45.511S136.533-125.655,136.533-100.533"/>
			<path style="fill:#FFAC33;" d="M91.022-27.681l7.202-45.978l29.23,36.215l-16.759-43.418l43.418,16.748l-36.215-29.23
				l45.978-7.191l-45.978-7.202l36.215-29.23l-43.418,16.748l16.759-43.418l-29.23,36.215l-7.202-45.978l-7.202,45.978
				l-29.23-36.215l16.759,43.418l-43.418-16.748l36.215,29.23l-45.978,7.202l45.978,7.191l-36.215,29.23L71.35-80.861L54.591-37.444
				l29.23-36.215L91.022-27.681z"/>
			<path style="fill:#C1694F;" d="M125.156-100.533c0,18.853-15.28,34.133-34.133,34.133c-18.864,0-34.145-15.28-34.145-34.133
				c0-18.842,15.28-34.133,34.145-34.133C109.875-134.667,125.156-119.375,125.156-100.533"/>
			<path style="fill:#FFAC33;" d="M66.378-100.579c0,13.54,10.968,24.508,24.496,24.508c13.54,0,24.508-10.968,24.508-24.508
				c0-13.517-10.968-24.485-24.508-24.485C77.346-125.064,66.378-114.096,66.378-100.579"/>
		</g>
	</g>
</g>
<g>
</g>
<g>
</g>
<g>
</g>
<g>
</g>
<g>
</g>
<g>
</g>
<g>
</g>
<g>
</g>
<g>
</g>
<g>
</g>
<g>
</g>
<g>
</g>
<g>
</g>
<g>
</g>
<g>
</g>
</svg>
